# xmcd CD database file
#
# Track frame offsets:
#	150
#	19227
#	40095
#	57040
#	75295
#	90905
#	112092
#	132400
#	152127
#	170052
#	191970
#	211162
#	230272
#	252647
#	267770
#	284417
#
# Disc length: 4043 seconds
#
# Revision: 4
# Processed by: cddbd v1.5.2PL0 Copyright (c) Steve Scherf et al.
# Submitted via: CDex 1.79
#
DISCID=db0fc910
DTITLE=NAKAJIMA Miyuki - BEST SELECTION 16
DYEAR=0
DGENRE=Blues
TTITLE0=Hitori Jouzu
TTITLE1=Yokorenbo
TTITLE2=Yuuwaku
TTITLE3=Akujo
TTITLE4=Ano Ko
TTITLE5=Mikaeri Bijin
TTITLE6=Doyou-Nami
TTITLE7=Atai no Natsu-Yasumi
TTITLE8=Wakare-Uta
TTITLE9=Home nite
TTITLE10=Kamome ha Kamome
TTITLE11=Tuki no Akanbou
TTITLE12=Musican
TTITLE13=Asita Teanki ni nare
TTITLE14=Azami-Jou no Lullaby
TTITLE15=Jidai
EXTD=YEAR: 0
EXTT0=
EXTT1=
EXTT2=
EXTT3=
EXTT4=
EXTT5=
EXTT6=
EXTT7=
EXTT8=
EXTT9=
EXTT10=
EXTT11=
EXTT12=
EXTT13=
EXTT14=
EXTT15=
PLAYORDER=
